<svg id="svg" version="1.1" xmlns="http://www.w3.org/2000/svg" xmlns:xlink="http://www.w3.org/1999/xlink" width="400" height="309.822263797942" viewBox="0, 0, 400,309.822263797942"><g id="svgg"><path id="path0" d="M236.335 38.191 C 235.307 38.487,234.409 39.645,232.647 42.949 C 230.546 46.889,221.358 62.214,214.184 73.744 L 208.753 82.474 206.668 82.984 C 185.688 88.117,166.678 97.787,162.187 105.613 C 160.338 108.834,164.228 109.828,166.652 106.753 C 172.690 99.098,186.806 91.395,203.396 86.703 C 205.007 86.247,206.382 85.875,206.452 85.875 C 206.764 85.875,190.515 110.847,184.601 119.457 C 180.106 126.000,170.303 139.656,169.666 140.262 C 168.192 141.663,168.144 141.670,158.653 141.834 C 153.971 141.915,148.709 142.069,146.960 142.176 C 145.210 142.284,141.380 142.499,138.447 142.654 C 65.842 146.496,19.754 162.967,16.463 186.249 C 13.805 205.051,43.014 221.667,73.340 218.604 C 99.939 215.918,126.781 198.504,155.080 165.575 C 157.995 162.183,160.333 159.296,169.228 148.106 C 172.666 143.782,172.394 143.873,181.934 143.873 C 186.538 143.873,186.525 143.842,184.102 149.182 C 172.119 175.595,167.564 192.776,171.431 196.982 C 172.532 198.179,175.430 198.581,176.348 197.664 L 176.813 197.198 176.033 196.214 C 174.744 194.586,174.491 193.835,174.476 191.581 C 174.456 188.762,174.835 186.826,175.371 187.002 C 179.806 188.457,183.109 188.506,193.078 187.263 C 201.478 186.215,213.347 183.646,224.666 180.427 C 228.437 179.354,229.373 179.265,229.373 179.978 C 229.373 181.190,216.408 205.970,204.216 228.064 C 201.001 233.888,200.748 234.447,200.748 235.725 C 200.748 236.858,201.315 237.418,202.463 237.418 C 204.120 237.418,204.155 237.376,206.999 231.878 C 210.169 225.751,214.146 218.411,218.748 210.196 C 224.791 199.409,227.958 193.528,232.843 184.028 C 236.680 176.567,236.037 177.087,245.226 174.019 C 254.842 170.809,261.756 168.171,271.282 164.080 C 288.279 156.780,298.403 151.507,310.141 143.839 C 315.117 140.588,315.015 140.621,324.337 139.308 C 345.742 136.294,366.896 134.429,378.391 134.543 C 383.306 134.592,383.820 134.537,384.007 133.947 C 384.445 132.568,383.069 132.029,379.167 132.052 C 365.102 132.135,339.201 134.344,324.890 136.680 C 319.649 137.536,319.557 137.322,323.443 133.324 C 340.707 115.562,343.087 103.301,331.529 91.653 C 315.899 75.900,270.898 70.951,222.498 79.663 C 221.443 79.853,220.580 79.942,220.580 79.860 C 220.580 79.779,223.300 73.795,226.625 66.563 C 229.949 59.331,233.082 52.488,233.586 51.356 C 234.675 48.914,236.867 44.581,238.278 42.084 C 240.043 38.959,239.241 37.352,236.335 38.191 M281.635 78.658 C 310.384 80.927,327.256 88.529,331.872 101.294 C 335.450 111.189,329.135 123.511,314.293 135.596 C 310.553 138.641,309.890 138.912,303.461 140.025 C 298.136 140.947,291.465 142.219,286.250 143.306 C 284.347 143.703,282.747 143.963,282.695 143.883 C 282.130 143.017,276.906 142.605,260.992 142.168 C 256.413 142.043,252.645 141.926,252.620 141.910 C 252.595 141.893,253.378 139.907,254.361 137.497 C 257.671 129.375,262.771 115.220,263.354 112.535 C 264.047 109.342,263.503 108.138,261.366 108.138 C 259.394 108.138,259.402 108.125,256.723 115.809 C 254.158 123.164,251.718 129.619,248.896 136.509 L 246.708 141.849 242.765 141.730 C 233.525 141.449,210.494 141.068,202.772 141.067 C 194.077 141.066,193.596 141.026,193.248 140.263 C 192.921 139.544,193.731 137.681,204.181 115.131 C 207.322 108.353,211.956 98.345,214.478 92.891 L 219.063 82.976 219.775 82.828 C 229.180 80.869,244.172 79.082,256.969 78.396 C 261.595 78.148,277.285 78.314,281.635 78.658 M212.155 86.377 C 211.090 89.671,207.246 98.394,198.401 117.587 C 195.461 123.967,192.922 129.570,190.540 134.935 C 187.803 141.101,188.119 140.878,181.670 141.198 C 174.040 141.576,174.171 141.853,178.854 135.267 C 188.038 122.351,194.221 113.163,205.797 95.229 C 212.523 84.809,212.774 84.459,212.155 86.377 M301.827 143.857 C 295.364 149.704,260.639 165.686,242.470 171.175 C 240.132 171.881,239.926 171.915,239.710 171.621 C 239.369 171.159,239.383 171.107,240.478 168.756 C 246.636 155.531,246.001 156.489,249.243 155.541 C 258.363 152.877,278.860 147.884,293.055 144.871 C 296.257 144.191,299.341 143.529,299.906 143.399 C 300.472 143.269,301.314 143.158,301.777 143.151 L 302.619 143.140 301.827 143.857 M238.868 143.806 C 243.640 143.890,245.650 143.987,245.649 144.133 C 245.648 144.452,242.693 151.348,242.182 152.223 C 241.085 154.103,239.076 155.250,235.173 156.223 C 229.693 157.590,216.117 161.740,207.990 164.534 C 191.196 170.308,185.945 172.518,179.242 176.637 C 178.270 177.235,177.448 177.697,177.416 177.665 C 177.158 177.408,182.028 164.664,185.181 157.343 C 187.234 152.579,190.033 146.191,190.494 145.219 C 191.208 143.714,190.650 143.793,201.488 143.668 C 211.733 143.551,227.680 143.609,238.868 143.806 M260.804 144.434 C 269.892 144.679,276.948 145.000,277.139 145.177 C 277.222 145.254,276.759 145.421,276.110 145.548 C 275.461 145.675,269.222 147.202,262.247 148.942 C 247.922 152.514,249.285 152.230,249.003 151.703 C 248.723 151.179,248.905 150.581,250.460 146.917 L 251.678 144.046 252.733 144.145 C 253.314 144.200,256.946 144.329,260.804 144.434 M165.388 144.808 C 166.045 145.465,165.769 145.892,160.071 153.040 C 126.328 195.368,95.510 216.485,67.446 216.507 C 41.022 216.529,18.359 201.436,21.151 185.675 C 25.100 163.376,75.618 147.395,150.327 144.809 C 163.727 144.346,164.926 144.346,165.388 144.808 M238.183 159.327 C 238.883 160.172,237.979 162.830,234.873 169.061 C 231.758 175.308,232.275 174.884,225.351 176.872 C 198.008 184.724,178.859 187.392,178.859 183.348 C 178.859 178.769,197.515 170.692,230.870 160.832 C 237.846 158.769,237.738 158.792,238.183 159.327 M41.908 251.363 C 39.641 252.067,38.634 253.848,38.634 257.156 C 38.634 260.118,39.012 260.944,41.417 263.237 C 46.187 267.783,46.348 267.963,46.686 269.127 C 47.517 271.985,46.305 274.185,43.902 274.179 C 41.830 274.173,40.973 273.079,40.973 270.436 L 40.973 269.036 39.638 269.036 L 38.303 269.036 38.404 270.767 C 38.641 274.781,40.479 276.707,44.072 276.707 C 47.717 276.707,49.472 274.735,49.481 270.627 C 49.488 267.266,48.716 266.006,44.461 262.434 C 41.894 260.280,41.001 258.659,41.218 256.551 C 41.664 252.230,46.958 252.486,46.959 256.829 L 46.960 257.998 48.293 257.998 L 49.627 257.998 49.541 256.514 C 49.298 252.317,46.002 250.092,41.908 251.363 M56.314 251.431 C 55.035 251.883,53.866 253.104,53.382 254.493 C 53.070 255.386,53.040 256.225,53.040 263.985 L 53.040 272.498 53.586 273.679 C 55.455 277.729,61.711 277.834,63.730 273.850 C 64.653 272.030,64.933 257.064,64.089 254.724 C 62.970 251.622,59.694 250.235,56.314 251.431 M71.724 251.280 C 70.519 251.629,69.355 252.609,68.760 253.775 L 68.195 254.884 68.141 263.489 C 68.081 273.052,68.094 273.181,69.308 274.853 C 70.144 276.003,71.311 276.551,73.168 276.665 C 77.414 276.925,79.326 274.640,79.326 269.308 L 79.326 267.353 78.017 267.353 L 76.707 267.353 76.707 269.436 C 76.707 273.161,75.562 274.663,73.078 274.197 C 70.851 273.780,70.729 273.251,70.724 263.966 C 70.720 254.835,70.776 254.515,72.538 253.764 C 74.974 252.727,76.565 254.193,76.677 257.577 L 76.741 259.495 78.034 259.495 L 79.326 259.495 79.326 258.007 C 79.326 252.755,76.195 249.984,71.724 251.280 M275.959 251.353 C 274.125 251.945,272.952 253.531,272.582 255.919 C 272.154 258.679,272.435 272.128,272.948 273.416 C 274.802 278.068,281.842 277.853,283.372 273.097 C 283.618 272.335,283.704 271.140,283.770 267.587 L 283.855 263.050 281.217 263.050 L 278.578 263.050 278.578 264.266 L 278.578 265.482 279.906 265.482 L 281.234 265.482 281.169 268.803 C 281.074 273.668,279.763 275.231,276.857 273.945 C 275.214 273.218,275.210 273.198,275.210 263.872 C 275.210 254.779,275.232 254.632,276.707 253.838 C 279.071 252.564,281.010 254.183,281.160 257.555 L 281.246 259.495 282.560 259.495 L 283.873 259.495 283.760 257.577 C 283.454 252.385,280.372 249.926,275.959 251.353 M82.881 263.891 L 82.881 276.520 84.284 276.520 L 85.688 276.520 85.688 263.891 L 85.688 251.263 84.284 251.263 L 82.881 251.263 82.881 263.891 M91.428 263.751 C 90.117 270.620,89.047 276.303,89.050 276.380 C 89.053 276.457,89.595 276.520,90.256 276.520 L 91.456 276.520 91.644 275.631 C 91.746 275.143,91.975 274.006,92.152 273.106 L 92.474 271.469 95.723 271.469 C 97.509 271.469,98.971 271.493,98.971 271.523 C 98.971 271.553,99.181 272.669,99.438 274.002 C 99.694 275.336,99.905 276.448,99.905 276.473 C 99.906 276.499,100.524 276.520,101.278 276.520 L 102.649 276.520 101.101 268.428 C 100.249 263.978,99.159 258.295,98.679 255.800 L 97.807 251.263 95.809 251.263 L 93.812 251.263 91.428 263.751 M105.893 263.891 L 105.893 276.520 110.851 276.520 L 115.809 276.520 115.809 275.304 L 115.809 274.088 112.254 274.088 L 108.700 274.088 108.700 262.675 L 108.700 251.263 107.297 251.263 L 105.893 251.263 105.893 263.891 M125.725 263.885 L 125.725 276.520 126.848 276.520 L 127.970 276.520 127.970 266.567 C 127.970 261.093,128.041 256.694,128.127 256.791 C 128.256 256.937,132.273 275.933,132.273 276.397 C 132.273 276.474,132.878 276.512,133.617 276.482 L 134.961 276.427 136.883 266.698 C 137.940 261.347,138.841 256.843,138.885 256.688 C 138.929 256.534,138.975 260.933,138.987 266.464 L 139.008 276.520 140.318 276.520 L 141.628 276.520 141.628 263.891 L 141.628 251.263 139.708 251.263 L 137.788 251.263 135.845 261.038 C 134.776 266.415,133.846 270.922,133.778 271.055 C 133.710 271.187,132.732 266.809,131.604 261.326 L 129.555 251.356 127.640 251.303 L 125.725 251.250 125.725 263.885 M145.557 263.891 L 145.557 276.520 150.795 276.520 L 156.034 276.520 156.034 275.308 L 156.034 274.096 152.245 274.045 L 148.457 273.994 148.406 269.457 L 148.356 264.920 151.447 264.920 L 154.537 264.920 154.537 263.704 L 154.537 262.488 151.450 262.488 L 148.363 262.488 148.363 258.092 L 148.363 253.695 152.198 253.695 L 156.034 253.695 156.034 252.479 L 156.034 251.263 150.795 251.263 L 145.557 251.263 145.557 263.891 M159.588 263.889 L 159.588 276.553 163.377 276.471 C 170.929 276.308,171.184 275.898,171.184 263.891 C 171.184 251.869,170.923 251.443,163.471 251.300 L 159.588 251.225 159.588 263.889 M174.930 263.891 L 174.930 276.520 176.333 276.520 L 177.736 276.520 177.736 263.891 L 177.736 251.263 176.333 251.263 L 174.930 251.263 174.930 263.891 M185.692 251.678 C 185.637 251.913,184.584 257.409,183.350 263.891 C 182.117 270.374,181.063 275.868,181.009 276.099 C 180.913 276.504,180.958 276.520,182.189 276.520 L 183.469 276.520 183.923 274.041 L 184.378 271.562 187.652 271.562 L 190.926 271.562 191.394 274.041 L 191.862 276.519 193.218 276.520 C 193.964 276.520,194.572 276.457,194.568 276.380 C 194.565 276.303,193.488 270.641,192.175 263.798 L 189.789 251.356 187.790 251.303 C 185.842 251.252,185.789 251.261,185.692 251.678 M204.490 263.891 L 204.490 276.520 205.705 276.520 L 206.919 276.520 206.967 266.595 L 207.016 256.670 209.044 266.455 C 211.346 277.561,210.994 276.557,212.554 276.483 L 213.751 276.427 215.741 266.511 L 217.731 256.595 217.752 266.558 L 217.774 276.520 219.083 276.520 L 220.393 276.520 220.393 263.885 L 220.393 251.250 218.482 251.303 L 216.572 251.356 214.580 261.344 C 213.484 266.837,212.544 271.257,212.490 271.166 C 212.436 271.075,211.483 266.560,210.371 261.132 L 208.351 251.263 206.420 251.263 L 204.490 251.263 204.490 263.891 M226.133 263.751 C 224.822 270.620,223.752 276.303,223.755 276.380 C 223.758 276.457,224.301 276.520,224.961 276.520 L 226.162 276.520 226.349 275.631 C 226.452 275.143,226.681 274.006,226.858 273.106 L 227.179 271.469 230.428 271.469 C 232.215 271.469,233.676 271.493,233.676 271.523 C 233.676 271.553,233.886 272.669,234.143 274.002 C 234.400 275.336,234.610 276.448,234.611 276.473 C 234.611 276.499,235.229 276.520,235.983 276.520 L 237.355 276.520 235.806 268.428 C 234.954 263.978,233.864 258.295,233.384 255.800 L 232.512 251.263 230.514 251.263 L 228.517 251.263 226.133 263.751 M240.599 263.891 L 240.599 276.520 241.815 276.520 L 243.031 276.520 243.031 266.380 C 243.031 260.712,243.102 256.318,243.192 256.417 C 243.280 256.515,244.768 261.078,246.497 266.558 L 249.642 276.520 251.014 276.520 L 252.385 276.520 252.385 263.891 L 252.385 251.263 251.265 251.263 L 250.144 251.263 250.095 260.384 L 250.047 269.504 248.517 264.827 C 247.676 262.254,246.345 258.150,245.559 255.706 L 244.130 251.263 242.364 251.263 L 240.599 251.263 240.599 263.891 M260.528 251.497 C 260.485 251.625,259.433 257.077,258.191 263.611 C 256.950 270.145,255.885 275.727,255.826 276.015 L 255.719 276.538 256.996 276.482 L 258.272 276.427 258.728 273.948 L 259.184 271.469 262.407 271.469 C 264.813 271.469,265.651 271.528,265.717 271.703 C 265.765 271.831,265.996 272.968,266.231 274.228 L 266.656 276.520 268.037 276.520 C 269.373 276.520,269.415 276.507,269.319 276.099 C 269.265 275.868,268.211 270.374,266.976 263.891 C 265.742 257.409,264.688 251.915,264.635 251.684 C 264.521 251.185,260.690 251.011,260.528 251.497 M287.558 263.891 L 287.558 276.520 292.703 276.520 L 297.848 276.520 297.848 275.304 L 297.848 274.088 294.107 274.088 L 290.365 274.088 290.365 269.504 L 290.365 264.920 293.452 264.920 L 296.539 264.920 296.539 263.704 L 296.539 262.488 293.452 262.488 L 290.365 262.488 290.365 258.092 L 290.365 253.695 294.107 253.695 L 297.848 253.695 297.848 252.479 L 297.848 251.263 292.703 251.263 L 287.558 251.263 287.558 263.891 M301.590 263.891 L 301.590 276.520 302.713 276.520 L 303.835 276.520 303.848 266.558 C 303.856 260.639,303.928 256.747,304.026 256.969 C 304.116 257.175,304.959 261.090,305.899 265.669 C 306.839 270.248,307.734 274.563,307.888 275.257 L 308.168 276.520 309.443 276.520 C 310.609 276.520,310.726 276.484,310.820 276.099 C 310.877 275.868,311.770 271.392,312.804 266.153 C 313.838 260.915,314.727 256.586,314.779 256.534 C 314.831 256.482,314.874 260.957,314.874 266.480 L 314.874 276.520 316.183 276.520 L 317.493 276.520 317.493 263.891 L 317.493 251.263 315.549 251.263 C 313.687 251.263,313.600 251.281,313.505 251.684 C 313.449 251.915,312.635 256.020,311.694 260.804 C 309.689 271.004,309.622 271.330,309.524 271.233 C 309.483 271.192,308.567 266.871,307.488 261.632 C 306.409 256.392,305.481 251.915,305.426 251.684 C 305.330 251.282,305.240 251.263,303.458 251.263 L 301.590 251.263 301.590 263.891 M321.422 263.891 L 321.422 276.520 326.567 276.520 L 331.712 276.520 331.712 275.304 L 331.712 274.088 327.970 274.088 L 324.228 274.088 324.228 269.504 L 324.228 264.920 327.315 264.920 L 330.402 264.920 330.402 263.704 L 330.402 262.488 327.315 262.488 L 324.228 262.488 324.228 258.092 L 324.228 253.695 327.970 253.695 L 331.712 253.695 331.712 252.479 L 331.712 251.263 326.567 251.263 L 321.422 251.263 321.422 263.891 M335.454 263.891 L 335.454 276.520 336.668 276.520 L 337.883 276.520 337.931 266.370 L 337.979 256.221 341.171 266.324 L 344.364 276.427 345.802 276.481 L 347.240 276.536 347.240 263.899 L 347.240 251.263 346.026 251.263 L 344.812 251.263 344.763 260.355 L 344.715 269.448 341.815 260.356 L 338.915 251.264 337.184 251.263 L 335.454 251.263 335.454 263.891 M350.234 252.473 L 350.234 253.684 352.526 253.736 L 354.818 253.789 354.866 265.154 L 354.914 276.520 356.221 276.520 L 357.528 276.520 357.576 265.154 L 357.624 253.789 359.916 253.736 L 362.208 253.684 362.208 252.473 L 362.208 251.263 356.221 251.263 L 350.234 251.263 350.234 252.473 M60.391 254.011 C 61.670 254.964,61.646 254.777,61.646 263.891 C 61.646 273.024,61.673 272.817,60.369 273.788 C 59.662 274.314,57.776 274.332,57.005 273.819 C 55.672 272.932,55.659 272.842,55.659 263.891 L 55.659 255.847 56.128 255.005 C 56.953 253.523,59.073 253.029,60.391 254.011 M167.054 254.165 C 168.464 254.990,168.475 255.064,168.475 263.891 C 168.475 274.024,168.544 273.849,164.443 274.044 L 162.395 274.141 162.395 263.897 L 162.395 253.654 164.406 253.723 C 165.988 253.777,166.553 253.871,167.054 254.165 M97.162 261.931 L 98.531 268.943 95.732 268.995 C 94.192 269.023,92.910 269.023,92.884 268.995 C 92.834 268.941,95.312 255.822,95.527 255.005 C 95.695 254.363,95.633 254.098,97.162 261.931 M189.093 261.795 C 189.842 265.623,190.456 268.819,190.457 268.896 C 190.458 268.973,189.196 269.036,187.652 269.036 C 185.714 269.036,184.846 268.972,184.846 268.828 C 184.846 268.713,185.435 265.548,186.155 261.794 C 186.876 258.040,187.465 254.878,187.465 254.768 C 187.465 253.846,187.929 255.850,189.093 261.795 M231.868 261.931 L 233.237 268.943 230.437 268.995 C 228.897 269.023,227.616 269.023,227.589 268.995 C 227.540 268.941,230.018 255.822,230.232 255.005 C 230.401 254.363,230.338 254.098,231.868 261.931 M263.897 261.856 C 264.663 265.754,265.292 268.964,265.293 268.990 C 265.294 269.015,264.032 269.036,262.488 269.036 C 260.007 269.036,259.682 269.001,259.682 268.728 C 259.682 268.465,261.528 258.570,262.131 255.598 C 262.413 254.214,262.348 253.987,263.897 261.856 " stroke="none" fill="#f9f9f9" fill-rule="evenodd"></path><path id="path1" d="M0.000 154.911 L 0.000 309.822 200.000 309.822 L 400.000 309.822 400.000 154.911 L 400.000 0.000 200.000 0.000 L 0.000 0.000 0.000 154.911 M239.074 38.657 C 239.683 39.363,239.542 39.998,238.278 42.251 C 236.653 45.145,234.259 50.026,232.113 54.818 C 231.030 57.236,228.002 63.845,225.386 69.504 C 222.769 75.164,220.645 79.815,220.666 79.840 C 220.686 79.866,221.584 79.724,222.660 79.527 C 231.516 77.900,243.413 76.504,255.005 75.734 C 259.855 75.411,278.125 75.407,282.320 75.727 C 314.970 78.219,334.127 87.266,338.075 102.058 C 340.526 111.241,336.369 119.972,322.778 134.185 C 319.943 137.150,320.116 137.341,324.933 136.568 C 343.664 133.560,380.644 130.898,383.160 132.376 C 384.248 133.015,384.497 133.688,383.853 134.249 L 383.328 134.705 377.398 134.707 C 364.736 134.711,346.226 136.348,324.415 139.391 C 315.566 140.626,314.908 140.817,311.348 143.175 C 293.431 155.044,267.919 166.846,242.470 175.040 C 236.903 176.833,236.421 177.224,234.055 181.874 C 229.392 191.038,225.674 197.963,218.900 210.103 C 213.626 219.553,210.030 226.189,206.936 232.180 C 204.149 237.575,203.534 238.154,201.499 237.299 C 199.622 236.510,199.930 235.615,205.661 225.242 C 216.304 205.975,229.005 181.643,229.228 180.092 C 229.324 179.428,228.493 179.433,226.192 180.111 C 203.576 186.773,181.060 189.916,175.650 187.165 C 175.051 186.861,175.056 186.853,174.739 188.817 C 174.205 192.125,174.775 194.949,176.264 196.376 C 177.862 197.906,174.785 199.019,172.368 197.785 C 168.986 196.058,169.189 188.859,172.954 176.988 C 175.149 170.069,180.164 157.522,184.733 147.521 C 185.636 145.545,185.833 144.379,185.298 144.173 C 184.795 143.980,174.134 144.049,173.410 144.250 C 172.380 144.536,171.261 145.644,168.635 148.974 C 151.822 170.303,141.581 181.391,129.186 191.689 C 106.446 210.582,89.181 218.285,67.938 219.017 C 44.146 219.836,20.547 207.927,16.726 193.171 C 11.234 171.958,43.378 153.705,99.719 146.046 C 110.679 144.556,124.404 143.316,138.260 142.563 C 142.119 142.353,146.707 142.103,148.457 142.007 C 150.206 141.910,154.963 141.780,159.027 141.718 C 166.921 141.598,167.706 141.517,169.012 140.689 C 170.276 139.887,181.092 124.679,190.698 110.196 C 197.854 99.408,206.375 86.162,206.197 86.102 C 205.967 86.023,199.364 87.962,196.445 88.965 C 183.191 93.519,171.286 100.713,166.511 107.051 C 164.447 109.790,160.578 108.894,161.915 105.987 C 165.337 98.540,184.326 88.581,205.239 83.263 L 208.700 82.383 213.533 74.634 C 222.406 60.409,230.048 47.618,233.560 41.114 C 235.227 38.027,237.614 36.964,239.074 38.657 M263.143 78.329 C 253.173 78.504,240.861 79.554,230.402 81.121 C 226.520 81.702,219.937 82.854,219.434 83.040 C 219.173 83.137,217.951 85.590,215.221 91.495 C 213.105 96.070,208.508 106.001,205.004 113.564 C 195.120 134.896,193.265 139.060,193.265 139.909 C 193.265 140.874,193.226 140.871,205.519 140.968 C 211.796 141.018,220.636 141.141,225.164 141.241 C 229.691 141.342,236.387 141.483,240.044 141.554 L 246.693 141.683 249.005 135.996 C 251.788 129.151,254.330 122.398,256.781 115.341 C 259.242 108.253,259.430 107.950,261.366 107.955 C 263.295 107.960,263.947 108.963,263.620 111.423 C 263.274 114.025,258.880 126.561,254.627 137.081 C 253.601 139.617,252.784 141.714,252.810 141.741 C 252.837 141.767,255.972 141.880,259.778 141.991 C 266.112 142.177,275.926 142.600,279.607 142.847 C 280.669 142.918,281.386 143.084,282.075 143.418 L 283.046 143.889 286.097 143.235 C 289.932 142.413,299.841 140.524,304.389 139.748 C 310.567 138.694,311.745 138.037,318.337 131.970 C 335.400 116.265,337.359 101.682,323.859 90.881 C 313.316 82.446,291.022 77.837,263.143 78.329 M211.663 86.297 C 211.441 86.631,209.877 89.051,208.187 91.674 C 193.961 113.768,188.075 122.531,177.959 136.670 C 174.512 141.489,174.429 141.379,181.287 141.128 C 188.207 140.875,187.560 141.387,191.174 133.300 C 193.952 127.084,196.882 120.649,198.968 116.183 C 199.762 114.486,200.686 112.465,201.023 111.693 C 201.361 110.921,202.625 108.143,203.833 105.519 C 209.682 92.818,213.401 83.689,211.663 86.297 M293.358 144.897 C 279.576 147.857,268.109 150.597,255.753 153.884 C 245.712 156.555,246.500 156.074,244.253 160.898 C 243.654 162.184,242.377 164.904,241.414 166.943 C 238.914 172.235,238.873 172.152,243.295 170.819 C 260.982 165.485,295.971 149.253,302.236 143.475 C 302.708 143.040,299.944 143.482,293.358 144.897 M196.605 143.853 C 190.867 143.983,191.231 143.866,190.312 145.891 C 184.805 158.028,177.148 177.028,177.588 177.463 C 177.618 177.492,178.611 176.932,179.794 176.217 C 185.765 172.612,190.134 170.711,202.619 166.287 C 213.099 162.574,226.948 158.246,235.173 156.113 C 240.852 154.640,241.372 154.161,243.993 147.989 L 245.622 144.153 243.531 144.031 C 240.609 143.859,202.665 143.716,196.605 143.853 M250.342 147.430 C 248.910 150.813,248.727 151.769,249.490 151.878 C 249.699 151.908,255.794 150.456,263.035 148.651 C 270.277 146.846,276.378 145.359,276.595 145.346 C 278.045 145.260,273.957 144.982,268.756 144.813 C 265.360 144.703,260.393 144.531,257.717 144.431 C 255.042 144.331,252.592 144.249,252.272 144.248 C 251.697 144.247,251.676 144.282,250.342 147.430 M149.673 144.914 C 73.354 147.889,24.199 163.803,21.136 186.529 C 18.679 204.752,50.073 220.574,78.297 215.338 C 101.084 211.110,127.726 191.963,152.873 161.740 C 160.950 152.033,165.575 146.086,165.575 145.410 C 165.575 144.516,162.410 144.418,149.673 144.914 M236.296 159.339 C 232.042 160.489,217.967 164.836,210.945 167.169 C 195.109 172.429,184.069 177.437,180.434 181.010 C 174.185 187.153,188.382 186.476,215.952 179.317 C 226.930 176.466,231.047 175.164,231.899 174.274 C 233.225 172.889,238.060 162.508,238.292 160.547 C 238.465 159.092,238.077 158.858,236.296 159.339 M46.586 251.379 C 48.280 252.056,49.455 254.068,49.700 256.713 L 49.820 257.998 48.390 257.998 L 46.960 257.998 46.960 257.239 C 46.960 254.782,45.958 253.614,43.947 253.728 C 41.881 253.845,41.238 254.787,41.375 257.496 C 41.471 259.385,42.183 260.403,45.259 263.050 C 48.910 266.191,49.935 268.038,49.711 271.071 C 49.425 274.937,47.453 276.826,43.747 276.785 C 40.277 276.746,38.354 274.537,38.354 270.593 L 38.354 269.036 39.663 269.036 L 40.973 269.036 40.981 270.206 C 41.003 273.364,43.210 275.108,45.485 273.765 C 48.184 272.170,47.052 268.229,42.909 264.790 C 39.455 261.923,38.431 260.143,38.469 257.063 C 38.528 252.216,42.219 249.631,46.586 251.379 M61.392 251.479 C 64.248 252.708,64.453 253.544,64.453 263.985 L 64.453 272.498 63.922 273.646 C 62.901 275.855,61.381 276.771,58.746 276.763 C 55.069 276.751,53.315 275.032,52.914 271.042 C 52.608 268.008,52.817 255.901,53.195 254.723 C 54.235 251.480,57.964 250.004,61.392 251.479 M76.330 251.467 C 78.363 252.341,79.184 253.957,79.293 257.297 L 79.371 259.682 78.067 259.682 L 76.764 259.682 76.643 257.701 C 76.455 254.625,75.785 253.697,73.751 253.696 C 70.901 253.694,70.814 253.998,70.814 263.891 C 70.814 273.763,70.906 274.088,73.714 274.088 C 75.878 274.088,76.498 273.138,76.656 269.577 L 76.764 267.166 78.045 267.166 L 79.326 267.166 79.326 269.539 C 79.326 274.536,77.714 276.706,73.951 276.774 C 71.111 276.826,69.161 275.625,68.363 273.334 C 67.824 271.785,67.818 256.017,68.356 254.473 C 69.411 251.443,73.069 250.064,76.330 251.467 M280.965 251.562 C 282.862 252.485,283.661 254.113,283.780 257.297 L 283.863 259.495 282.437 259.495 L 281.010 259.495 281.006 257.671 C 280.999 254.550,280.236 253.582,277.900 253.730 C 275.330 253.894,275.208 254.359,275.219 263.972 C 275.229 273.488,275.403 274.088,278.147 274.088 C 280.538 274.088,281.010 273.198,281.010 268.697 L 281.010 265.482 279.692 265.482 L 278.374 265.482 278.429 264.219 L 278.485 262.956 281.164 262.904 L 283.844 262.852 283.784 267.768 C 283.724 272.617,283.716 272.699,283.235 273.726 C 281.315 277.819,275.199 277.984,273.152 273.998 L 272.498 272.723 272.498 263.907 L 272.498 255.091 273.107 253.853 C 274.459 251.107,277.943 250.091,280.965 251.562 M85.875 263.891 L 85.875 276.520 84.378 276.520 L 82.881 276.520 82.881 263.891 L 82.881 251.263 84.378 251.263 L 85.875 251.263 85.875 263.891 M100.311 263.704 C 101.618 270.496,102.694 276.158,102.700 276.286 C 102.709 276.454,102.303 276.520,101.255 276.520 L 99.798 276.520 99.338 274.041 L 98.877 271.562 95.701 271.562 L 92.525 271.562 92.068 274.041 L 91.611 276.520 90.236 276.520 C 88.906 276.520,88.864 276.506,88.958 276.099 C 89.011 275.868,90.063 270.374,91.297 263.891 C 92.530 257.409,93.585 251.913,93.641 251.678 C 93.740 251.261,93.791 251.252,95.838 251.304 L 97.933 251.356 100.311 263.704 M108.700 262.582 L 108.700 273.901 112.348 273.901 L 115.996 273.901 115.996 275.210 L 115.996 276.520 110.945 276.520 L 105.893 276.520 105.893 263.891 L 105.893 251.263 107.297 251.263 L 108.700 251.263 108.700 262.582 M129.792 252.058 C 129.885 252.495,130.796 256.910,131.815 261.868 C 132.835 266.826,133.693 270.859,133.722 270.830 C 133.751 270.801,134.614 266.576,135.640 261.441 C 136.665 256.306,137.550 251.915,137.605 251.684 C 137.702 251.279,137.784 251.263,139.760 251.263 L 141.815 251.263 141.815 263.891 L 141.815 276.520 140.412 276.520 L 139.008 276.520 138.991 266.651 L 138.973 256.782 137.004 266.659 L 135.034 276.535 133.618 276.481 L 132.201 276.427 130.226 266.909 L 128.251 257.391 128.202 266.956 L 128.154 276.520 126.846 276.520 L 125.538 276.520 125.538 263.891 L 125.538 251.263 127.581 251.263 L 129.624 251.263 129.792 252.058 M156.034 252.572 L 156.034 253.882 152.292 253.882 L 148.550 253.882 148.550 258.087 L 148.550 262.292 151.590 262.343 L 154.630 262.395 154.630 263.704 L 154.630 265.014 151.590 265.065 L 148.550 265.117 148.550 269.509 L 148.550 273.901 152.292 273.901 L 156.034 273.901 156.034 275.210 L 156.034 276.520 150.795 276.520 L 145.557 276.520 145.557 263.891 L 145.557 251.263 150.795 251.263 L 156.034 251.263 156.034 252.572 M167.915 251.573 C 169.125 251.985,170.273 253.157,170.836 254.554 L 171.282 255.659 171.282 263.891 L 171.282 272.123 170.836 273.229 C 169.731 275.970,168.455 276.520,163.203 276.520 L 159.588 276.520 159.588 263.891 L 159.588 251.263 163.297 251.263 C 166.258 251.263,167.189 251.325,167.915 251.573 M177.736 263.891 L 177.736 276.520 176.333 276.520 L 174.930 276.520 174.930 263.891 L 174.930 251.263 176.333 251.263 L 177.736 251.263 177.736 263.891 M190.011 251.964 C 190.083 252.350,191.164 258.012,192.414 264.546 L 194.686 276.427 193.298 276.482 C 192.534 276.512,191.879 276.506,191.841 276.469 C 191.777 276.405,191.207 273.689,190.939 272.170 L 190.816 271.469 187.670 271.469 L 184.524 271.469 184.118 273.573 C 183.895 274.731,183.671 275.868,183.621 276.099 C 183.529 276.519,180.931 276.788,180.909 276.380 C 180.905 276.303,181.974 270.620,183.284 263.751 L 185.667 251.263 187.773 251.263 L 189.880 251.263 190.011 251.964 M208.466 251.497 C 208.513 251.625,209.427 256.003,210.497 261.225 C 211.566 266.447,212.486 270.719,212.540 270.720 C 212.594 270.720,213.420 266.742,214.376 261.880 C 215.332 257.018,216.199 252.640,216.304 252.152 L 216.494 251.263 218.537 251.263 L 220.580 251.263 220.580 263.891 L 220.580 276.520 219.178 276.520 L 217.777 276.520 217.729 266.827 L 217.680 257.133 215.822 266.593 C 214.800 271.796,213.928 276.158,213.884 276.286 C 213.748 276.688,211.087 276.603,210.970 276.193 C 210.919 276.013,210.008 271.657,208.946 266.513 L 207.016 257.161 206.967 266.841 L 206.919 276.520 205.611 276.520 L 204.303 276.520 204.303 263.891 L 204.303 251.263 206.341 251.263 C 207.801 251.263,208.404 251.329,208.466 251.497 M235.016 263.704 C 236.324 270.496,237.399 276.158,237.406 276.286 C 237.415 276.454,237.009 276.520,235.961 276.520 L 234.503 276.520 234.043 274.041 L 233.583 271.562 230.406 271.562 L 227.230 271.562 226.773 274.041 L 226.316 276.520 224.941 276.520 C 223.611 276.520,223.569 276.506,223.663 276.099 C 223.716 275.868,224.769 270.374,226.002 263.891 C 227.235 257.409,228.290 251.913,228.346 251.678 C 228.446 251.261,228.496 251.252,230.543 251.304 L 232.639 251.356 235.016 263.704 M247.056 260.051 L 249.860 268.839 249.908 260.051 L 249.957 251.263 251.265 251.263 L 252.572 251.263 252.572 263.899 L 252.572 276.535 251.035 276.481 L 249.498 276.427 246.405 266.622 L 243.312 256.818 243.263 266.669 L 243.215 276.520 241.907 276.520 L 240.599 276.520 240.599 263.891 L 240.599 251.263 242.425 251.263 L 244.252 251.263 247.056 260.051 M267.043 263.751 C 268.353 270.620,269.422 276.306,269.418 276.388 C 269.414 276.469,268.764 276.511,267.973 276.481 L 266.536 276.427 266.068 273.948 L 265.601 271.469 262.470 271.469 L 259.339 271.469 259.152 272.357 C 259.049 272.846,258.820 273.983,258.643 274.883 L 258.321 276.520 256.961 276.520 C 255.761 276.520,255.610 276.482,255.679 276.193 C 255.776 275.790,260.430 251.436,260.430 251.335 C 260.430 251.295,261.382 251.263,262.546 251.263 L 264.661 251.263 267.043 263.751 M297.997 252.526 L 297.942 253.789 294.153 253.839 L 290.365 253.890 290.365 258.096 L 290.365 262.301 293.460 262.301 L 296.555 262.301 296.500 263.658 L 296.445 265.014 293.405 265.065 L 290.365 265.117 290.365 269.509 L 290.365 273.901 294.200 273.901 L 298.036 273.901 298.036 275.210 L 298.036 276.520 292.703 276.520 L 287.371 276.520 287.371 263.891 L 287.371 251.263 292.712 251.263 L 298.053 251.263 297.997 252.526 M307.195 259.729 C 308.152 264.385,309.071 268.852,309.237 269.656 L 309.538 271.118 311.513 261.237 L 313.487 251.356 315.490 251.303 L 317.493 251.250 317.493 263.885 L 317.493 276.520 316.090 276.520 L 314.687 276.520 314.666 267.025 L 314.645 257.530 312.756 267.025 L 310.867 276.520 309.453 276.520 L 308.038 276.520 306.077 267.065 L 304.116 257.609 304.068 267.065 L 304.019 276.520 302.711 276.520 L 301.403 276.520 301.403 263.891 L 301.403 251.263 303.429 251.263 L 305.455 251.263 307.195 259.729 M331.899 252.572 L 331.899 253.882 328.064 253.882 L 324.228 253.882 324.228 258.092 L 324.228 262.301 327.315 262.301 L 330.402 262.301 330.402 263.704 L 330.402 265.108 327.315 265.108 L 324.228 265.108 324.228 269.504 L 324.228 273.901 328.064 273.901 L 331.899 273.901 331.899 275.210 L 331.899 276.520 326.660 276.520 L 321.422 276.520 321.422 263.891 L 321.422 251.263 326.660 251.263 L 331.899 251.263 331.899 252.572 M340.483 255.893 C 341.302 258.440,342.603 262.460,343.373 264.827 L 344.773 269.130 344.791 260.196 L 344.808 251.263 346.118 251.263 L 347.428 251.263 347.428 263.891 L 347.428 276.520 345.863 276.520 L 344.298 276.520 343.749 274.790 C 343.447 273.838,342.025 269.343,340.590 264.802 L 337.979 256.544 337.931 266.532 L 337.883 276.520 336.575 276.520 L 335.267 276.520 335.267 263.891 L 335.267 251.263 337.130 251.263 L 338.992 251.263 340.483 255.893 M362.357 252.526 L 362.301 253.789 360.009 253.841 L 357.717 253.894 357.717 265.207 L 357.717 276.520 356.221 276.520 L 354.724 276.520 354.724 265.201 L 354.724 253.882 352.385 253.882 L 350.047 253.882 350.047 252.572 L 350.047 251.263 356.229 251.263 L 362.412 251.263 362.357 252.526 M57.322 253.878 C 56.765 254.104,56.162 254.928,55.933 255.779 C 55.562 257.159,55.780 272.002,56.183 272.740 C 57.201 274.604,60.340 274.591,61.189 272.719 C 61.736 271.516,61.736 256.267,61.189 255.064 C 60.642 253.858,58.783 253.288,57.322 253.878 M162.395 263.891 L 162.395 273.901 164.312 273.901 C 168.391 273.900,168.382 273.923,168.382 263.891 C 168.382 253.860,168.391 253.883,164.312 253.882 L 162.395 253.882 162.395 263.891 M261.099 261.557 C 260.388 265.311,259.769 268.529,259.722 268.709 C 259.645 269.010,259.861 269.036,262.373 269.036 C 264.856 269.036,265.107 269.006,265.098 268.709 C 265.093 268.529,264.482 265.311,263.740 261.557 L 262.391 254.733 261.099 261.557 M95.557 255.379 C 95.395 256.008,92.984 268.643,92.984 268.863 C 92.984 268.962,94.156 269.036,95.697 269.036 C 97.749 269.036,98.407 268.979,98.398 268.803 C 98.343 267.703,95.654 255.000,95.557 255.379 M186.265 261.774 C 185.558 265.511,184.941 268.674,184.893 268.803 C 184.826 268.983,185.430 269.036,187.538 269.036 C 190.016 269.036,190.271 269.006,190.272 268.709 C 190.274 268.270,187.855 255.752,187.685 255.319 C 187.604 255.114,187.041 257.673,186.265 261.774 M230.262 255.379 C 230.100 256.008,227.689 268.643,227.689 268.863 C 227.689 268.962,228.861 269.036,230.402 269.036 C 232.454 269.036,233.112 268.979,233.103 268.803 C 233.048 267.703,230.360 255.000,230.262 255.379 " stroke="none" fill="#1c1c1c" fill-rule="evenodd"></path><path id="path2" d="M260.851 75.532 C 261.134 75.574,261.597 75.574,261.880 75.532 C 262.163 75.489,261.932 75.454,261.366 75.454 C 260.800 75.454,260.568 75.489,260.851 75.532 M276.195 75.532 C 276.480 75.575,276.901 75.574,277.131 75.529 C 277.361 75.485,277.128 75.450,276.614 75.451 C 276.099 75.452,275.911 75.489,276.195 75.532 M263.845 78.340 C 264.231 78.381,264.862 78.381,265.248 78.340 C 265.634 78.300,265.318 78.267,264.546 78.267 C 263.775 78.267,263.459 78.300,263.845 78.340 M270.299 78.341 C 270.737 78.380,271.452 78.380,271.890 78.341 C 272.327 78.302,271.969 78.269,271.094 78.269 C 270.220 78.269,269.862 78.302,270.299 78.341 M331.431 91.487 C 332.146 92.208,332.773 92.797,332.824 92.797 C 332.876 92.797,332.333 92.208,331.618 91.487 C 330.904 90.767,330.277 90.178,330.225 90.178 C 330.174 90.178,330.716 90.767,331.431 91.487 M164.633 102.479 L 163.611 103.555 164.687 102.532 C 165.686 101.582,165.848 101.403,165.709 101.403 C 165.680 101.403,165.196 101.887,164.633 102.479 M168.933 104.163 L 168.288 104.864 168.990 104.220 C 169.376 103.865,169.691 103.549,169.691 103.518 C 169.691 103.375,169.533 103.510,168.933 104.163 M263.654 110.196 C 263.654 110.557,263.693 110.704,263.740 110.524 C 263.787 110.344,263.787 110.049,263.740 109.869 C 263.693 109.689,263.654 109.836,263.654 110.196 M376.660 132.028 C 376.841 132.075,377.135 132.075,377.315 132.028 C 377.495 131.981,377.348 131.942,376.988 131.942 C 376.628 131.942,376.480 131.981,376.660 132.028 M371.983 132.215 C 372.163 132.262,372.458 132.262,372.638 132.215 C 372.818 132.168,372.671 132.129,372.311 132.129 C 371.950 132.129,371.803 132.168,371.983 132.215 M323.380 133.442 L 322.264 134.612 323.433 133.495 C 324.519 132.458,324.688 132.273,324.550 132.273 C 324.521 132.273,323.995 132.799,323.380 133.442 M376.108 134.657 C 376.910 134.693,378.173 134.692,378.914 134.657 C 379.655 134.622,378.999 134.593,377.456 134.593 C 375.912 134.593,375.306 134.622,376.108 134.657 M321.282 137.079 C 321.462 137.126,321.756 137.126,321.936 137.079 C 322.116 137.032,321.969 136.994,321.609 136.994 C 321.249 136.994,321.101 137.032,321.282 137.079 M198.933 141.019 C 199.735 141.054,200.998 141.053,201.739 141.018 C 202.480 140.983,201.824 140.954,200.281 140.954 C 198.737 140.954,198.131 140.983,198.933 141.019 M206.034 141.018 C 206.625 141.055,207.594 141.055,208.185 141.018 C 208.777 140.980,208.293 140.950,207.109 140.950 C 205.926 140.950,205.442 140.980,206.034 141.018 M218.471 141.201 C 218.803 141.243,219.393 141.243,219.781 141.203 C 220.169 141.162,219.897 141.129,219.177 141.128 C 218.457 141.127,218.139 141.160,218.471 141.201 M228.200 141.389 C 228.532 141.430,229.121 141.431,229.509 141.390 C 229.898 141.350,229.626 141.316,228.906 141.315 C 228.185 141.314,227.868 141.347,228.200 141.389 M237.375 141.576 C 237.711 141.618,238.216 141.617,238.497 141.574 C 238.778 141.532,238.503 141.498,237.886 141.499 C 237.268 141.500,237.038 141.535,237.375 141.576 M158.415 141.763 C 158.747 141.804,159.336 141.805,159.725 141.764 C 160.113 141.724,159.841 141.690,159.121 141.689 C 158.400 141.688,158.083 141.721,158.415 141.763 M150.751 141.947 C 150.983 141.992,151.320 141.990,151.499 141.943 C 151.678 141.896,151.487 141.860,151.076 141.862 C 150.664 141.864,150.518 141.902,150.751 141.947 M254.774 141.950 C 255.110 141.992,255.616 141.991,255.897 141.948 C 256.178 141.906,255.903 141.872,255.285 141.873 C 254.668 141.874,254.438 141.909,254.774 141.950 M261.506 142.134 C 261.738 142.179,262.116 142.179,262.348 142.134 C 262.580 142.089,262.390 142.053,261.927 142.053 C 261.464 142.053,261.275 142.089,261.506 142.134 M267.869 142.321 C 268.102 142.366,268.439 142.364,268.618 142.318 C 268.797 142.271,268.606 142.234,268.195 142.236 C 267.783 142.238,267.637 142.277,267.869 142.321 M301.546 143.257 C 301.778 143.301,302.115 143.300,302.294 143.253 C 302.473 143.206,302.283 143.170,301.871 143.172 C 301.459 143.174,301.313 143.212,301.546 143.257 M193.031 143.818 C 193.262 143.862,193.641 143.862,193.873 143.818 C 194.104 143.773,193.915 143.737,193.452 143.737 C 192.989 143.737,192.799 143.773,193.031 143.818 M198.924 143.823 C 199.413 143.862,200.213 143.862,200.702 143.823 C 201.190 143.785,200.790 143.753,199.813 143.753 C 198.835 143.753,198.435 143.785,198.924 143.823 M233.630 143.823 C 234.067 143.862,234.783 143.862,235.220 143.823 C 235.657 143.783,235.299 143.751,234.425 143.751 C 233.550 143.751,233.192 143.783,233.630 143.823 M242.142 144.007 C 242.425 144.050,242.888 144.050,243.171 144.007 C 243.454 143.964,243.223 143.929,242.657 143.929 C 242.091 143.929,241.859 143.964,242.142 144.007 M255.147 144.379 C 255.380 144.424,255.717 144.422,255.896 144.376 C 256.074 144.329,255.884 144.292,255.472 144.294 C 255.061 144.296,254.914 144.335,255.147 144.379 M163.751 144.563 C 163.931 144.610,164.226 144.610,164.406 144.563 C 164.586 144.516,164.439 144.477,164.079 144.477 C 163.718 144.477,163.571 144.516,163.751 144.563 M260.854 144.568 C 261.138 144.611,261.559 144.610,261.789 144.566 C 262.019 144.521,261.787 144.486,261.272 144.488 C 260.758 144.489,260.569 144.525,260.854 144.568 M154.584 144.750 C 154.764 144.797,155.058 144.797,155.239 144.750 C 155.419 144.703,155.271 144.665,154.911 144.665 C 154.551 144.665,154.404 144.703,154.584 144.750 M266.375 144.758 C 266.815 144.798,267.489 144.797,267.872 144.757 C 268.255 144.717,267.895 144.685,267.072 144.685 C 266.249 144.686,265.935 144.719,266.375 144.758 M149.254 144.941 C 149.487 144.985,149.823 144.984,150.002 144.937 C 150.181 144.890,149.991 144.853,149.579 144.855 C 149.167 144.857,149.021 144.896,149.254 144.941 M139.659 176.473 L 138.167 178.017 139.710 176.525 C 140.559 175.704,141.254 175.009,141.254 174.981 C 141.254 174.845,141.045 175.040,139.659 176.473 M145.825 175.912 L 145.276 176.520 145.884 175.971 C 146.218 175.668,146.492 175.395,146.492 175.363 C 146.492 175.218,146.338 175.345,145.825 175.912 M135.822 180.309 L 134.612 181.572 135.875 180.361 C 136.569 179.695,137.138 179.127,137.138 179.098 C 137.138 178.960,136.947 179.136,135.822 180.309 M182.180 188.345 C 182.411 188.390,182.790 188.390,183.022 188.345 C 183.253 188.301,183.064 188.264,182.601 188.264 C 182.138 188.264,181.948 188.301,182.180 188.345 M174.422 191.674 C 174.423 192.189,174.460 192.377,174.503 192.093 C 174.546 191.808,174.545 191.388,174.500 191.157 C 174.456 190.927,174.421 191.160,174.422 191.674 M27.502 202.339 C 27.851 202.699,28.179 202.993,28.231 202.993 C 28.282 202.993,28.039 202.699,27.689 202.339 C 27.340 201.978,27.013 201.684,26.961 201.684 C 26.910 201.684,27.153 201.978,27.502 202.339 M62.722 219.025 C 62.902 219.072,63.197 219.072,63.377 219.025 C 63.557 218.978,63.410 218.940,63.050 218.940 C 62.689 218.940,62.542 218.978,62.722 219.025 M67.306 219.032 C 67.640 219.073,68.188 219.073,68.522 219.032 C 68.856 218.990,68.583 218.956,67.914 218.956 C 67.245 218.956,66.971 218.990,67.306 219.032 M85.776 263.891 C 85.776 270.889,85.799 273.724,85.828 270.192 C 85.856 266.660,85.856 260.935,85.828 257.470 C 85.799 254.005,85.776 256.894,85.776 263.891 M141.716 263.891 C 141.716 270.889,141.739 273.724,141.768 270.192 C 141.796 266.660,141.796 260.935,141.768 257.470 C 141.739 254.005,141.716 256.894,141.716 263.891 M204.392 263.891 C 204.392 270.889,204.415 273.724,204.443 270.192 C 204.472 266.660,204.472 260.935,204.443 257.470 C 204.415 254.005,204.392 256.894,204.392 263.891 M287.460 263.891 C 287.460 270.889,287.483 273.724,287.512 270.192 C 287.540 266.660,287.540 260.935,287.512 257.470 C 287.483 254.005,287.460 256.894,287.460 263.891 M297.910 252.479 C 297.911 253.199,297.944 253.471,297.985 253.083 C 298.025 252.695,298.025 252.105,297.983 251.773 C 297.942 251.441,297.909 251.759,297.910 252.479 M347.329 263.891 C 347.329 270.889,347.352 273.724,347.381 270.192 C 347.409 266.660,347.409 260.935,347.381 257.470 C 347.352 254.005,347.329 256.894,347.329 263.891 M362.269 252.479 C 362.270 253.199,362.304 253.471,362.344 253.083 C 362.385 252.695,362.384 252.105,362.343 251.773 C 362.301 251.441,362.268 251.759,362.269 252.479 M73.386 253.637 C 73.566 253.684,73.861 253.684,74.041 253.637 C 74.221 253.590,74.074 253.551,73.714 253.551 C 73.354 253.551,73.206 253.590,73.386 253.637 M277.877 253.637 C 278.057 253.684,278.351 253.684,278.531 253.637 C 278.711 253.590,278.564 253.551,278.204 253.551 C 277.844 253.551,277.696 253.590,277.877 253.637 M148.451 258.138 L 148.457 262.395 151.497 262.446 L 154.537 262.498 154.537 263.704 L 154.537 264.911 151.497 264.963 L 148.457 265.014 148.451 269.411 L 148.446 273.807 148.502 269.462 L 148.557 265.117 151.594 265.065 L 154.630 265.014 154.630 263.704 L 154.630 262.395 151.594 262.343 L 148.557 262.292 148.501 258.087 L 148.446 253.882 148.451 258.138 M357.618 265.201 C 357.618 271.478,357.642 274.019,357.671 270.847 C 357.699 267.676,357.699 262.540,357.671 259.435 C 357.642 256.329,357.618 258.924,357.618 265.201 M41.203 257.063 C 41.203 257.423,41.242 257.570,41.289 257.390 C 41.336 257.210,41.336 256.915,41.289 256.735 C 41.242 256.555,41.203 256.703,41.203 257.063 M61.638 263.798 C 61.638 267.862,61.663 269.525,61.693 267.493 C 61.723 265.461,61.723 262.135,61.693 260.103 C 61.663 258.071,61.638 259.733,61.638 263.798 M314.662 257.109 C 314.624 257.341,314.636 261.824,314.689 267.072 L 314.785 276.614 314.830 266.651 C 314.870 257.422,314.845 255.983,314.662 257.109 M171.273 263.891 C 171.273 267.802,171.298 269.428,171.328 267.505 C 171.358 265.583,171.358 262.383,171.328 260.396 C 171.298 258.408,171.273 259.981,171.273 263.891 M303.835 266.698 C 303.835 272.134,303.876 276.542,303.926 276.492 C 304.050 276.367,304.060 257.038,303.935 256.913 C 303.880 256.858,303.835 261.261,303.835 266.698 M281.072 258.279 C 281.073 258.999,281.106 259.271,281.147 258.883 C 281.187 258.494,281.187 257.905,281.145 257.573 C 281.104 257.241,281.071 257.558,281.072 258.279 M52.844 263.891 C 52.844 267.493,52.869 268.940,52.900 267.107 C 52.930 265.274,52.930 262.327,52.900 260.559 C 52.869 258.790,52.844 260.290,52.844 263.891 M291.918 262.441 C 292.823 262.475,294.254 262.475,295.098 262.440 C 295.942 262.406,295.201 262.378,293.452 262.378 C 291.703 262.378,291.012 262.406,291.918 262.441 M325.781 262.441 C 326.686 262.475,328.118 262.475,328.961 262.440 C 329.805 262.406,329.065 262.378,327.315 262.378 C 325.566 262.378,324.876 262.406,325.781 262.441 M40.599 262.734 C 40.599 262.766,40.872 263.040,41.207 263.342 L 41.815 263.891 41.265 263.283 C 40.753 262.717,40.599 262.589,40.599 262.734 M278.469 263.117 C 278.415 263.257,278.402 263.868,278.439 264.474 L 278.507 265.575 278.543 264.318 L 278.578 263.060 281.244 263.002 L 283.910 262.945 281.238 262.904 C 279.127 262.871,278.546 262.916,278.469 263.117 M46.960 264.640 C 47.309 265.000,47.637 265.295,47.688 265.295 C 47.739 265.295,47.496 265.000,47.147 264.640 C 46.798 264.280,46.470 263.985,46.419 263.985 C 46.367 263.985,46.611 264.280,46.960 264.640 M291.815 265.060 C 292.664 265.094,294.053 265.094,294.902 265.060 C 295.751 265.025,295.056 264.997,293.358 264.997 C 291.660 264.997,290.966 265.025,291.815 265.060 M325.781 265.060 C 326.686 265.094,328.118 265.094,328.961 265.060 C 329.805 265.025,329.065 264.997,327.315 264.997 C 325.566 264.997,324.876 265.026,325.781 265.060 M281.084 268.195 C 281.084 269.635,281.114 270.200,281.149 269.449 C 281.185 268.699,281.185 267.520,281.149 266.830 C 281.113 266.140,281.084 266.754,281.084 268.195 M77.315 267.302 C 77.701 267.342,78.333 267.342,78.718 267.302 C 79.104 267.262,78.789 267.228,78.017 267.228 C 77.245 267.228,76.929 267.262,77.315 267.302 M297.911 275.210 C 297.911 275.982,297.944 276.298,297.985 275.912 C 298.025 275.526,298.025 274.895,297.985 274.509 C 297.944 274.123,297.911 274.439,297.911 275.210 M43.545 276.839 C 43.777 276.884,44.156 276.884,44.387 276.839 C 44.619 276.795,44.429 276.758,43.966 276.758 C 43.503 276.758,43.314 276.795,43.545 276.839 M58.328 276.840 C 58.560 276.884,58.897 276.883,59.076 276.836 C 59.255 276.789,59.065 276.752,58.653 276.754 C 58.241 276.756,58.095 276.795,58.328 276.840 M73.295 276.840 C 73.528 276.884,73.864 276.883,74.043 276.836 C 74.222 276.789,74.032 276.752,73.620 276.754 C 73.209 276.756,73.062 276.795,73.295 276.840 M277.785 276.840 C 278.018 276.884,278.355 276.883,278.534 276.836 C 278.712 276.789,278.522 276.752,278.110 276.754 C 277.699 276.756,277.552 276.795,277.785 276.840 " stroke="none" fill="#6f6e6e" fill-rule="evenodd"></path><path id="path3" d="M262.812 75.533 C 263.144 75.574,263.733 75.575,264.121 75.534 C 264.509 75.494,264.238 75.460,263.517 75.459 C 262.797 75.458,262.479 75.491,262.812 75.533 M274.041 75.533 C 274.376 75.574,274.923 75.574,275.257 75.533 C 275.592 75.491,275.318 75.457,274.649 75.457 C 273.980 75.457,273.707 75.491,274.041 75.533 M279.373 75.714 C 279.553 75.761,279.848 75.761,280.028 75.714 C 280.208 75.667,280.061 75.628,279.701 75.628 C 279.341 75.628,279.193 75.667,279.373 75.714 M251.123 76.088 C 251.303 76.135,251.597 76.135,251.777 76.088 C 251.957 76.041,251.810 76.002,251.450 76.002 C 251.090 76.002,250.942 76.041,251.123 76.088 M260.664 78.341 C 261.153 78.380,261.953 78.380,262.442 78.341 C 262.930 78.303,262.530 78.271,261.553 78.271 C 260.575 78.271,260.175 78.303,260.664 78.341 M273.106 78.339 C 273.440 78.381,273.987 78.381,274.322 78.339 C 274.656 78.298,274.383 78.264,273.714 78.264 C 273.045 78.264,272.771 78.298,273.106 78.339 M256.174 78.520 C 256.354 78.567,256.649 78.567,256.829 78.520 C 257.009 78.473,256.862 78.434,256.501 78.434 C 256.141 78.434,255.994 78.473,256.174 78.520 M252.432 78.707 C 252.612 78.754,252.907 78.754,253.087 78.707 C 253.267 78.660,253.120 78.622,252.760 78.622 C 252.399 78.622,252.252 78.660,252.432 78.707 M338.491 105.706 C 338.491 106.066,338.529 106.214,338.576 106.034 C 338.623 105.854,338.623 105.559,338.576 105.379 C 338.529 105.199,338.491 105.346,338.491 105.706 M338.491 107.764 C 338.491 108.124,338.529 108.272,338.576 108.092 C 338.623 107.912,338.623 107.617,338.576 107.437 C 338.529 107.257,338.491 107.404,338.491 107.764 M261.132 108.083 C 261.363 108.128,261.742 108.128,261.974 108.083 C 262.205 108.039,262.016 108.002,261.553 108.002 C 261.090 108.002,260.900 108.039,261.132 108.083 M320.576 129.888 L 319.083 131.431 320.627 129.939 C 322.060 128.553,322.256 128.344,322.119 128.344 C 322.091 128.344,321.396 129.039,320.576 129.888 M377.877 132.031 C 378.108 132.076,378.487 132.076,378.718 132.031 C 378.950 131.986,378.761 131.950,378.297 131.950 C 377.834 131.950,377.645 131.986,377.877 132.031 M380.402 132.028 C 380.582 132.075,380.877 132.075,381.057 132.028 C 381.237 131.981,381.090 131.942,380.730 131.942 C 380.370 131.942,380.222 131.981,380.402 132.028 M373.201 132.218 C 373.434 132.263,373.771 132.261,373.950 132.215 C 374.129 132.168,373.938 132.131,373.527 132.133 C 373.115 132.135,372.969 132.174,373.201 132.218 M368.898 132.405 C 369.131 132.450,369.468 132.449,369.647 132.402 C 369.826 132.355,369.635 132.318,369.224 132.320 C 368.812 132.322,368.666 132.361,368.898 132.405 M364.874 132.589 C 365.054 132.636,365.348 132.636,365.529 132.589 C 365.709 132.542,365.561 132.504,365.201 132.504 C 364.841 132.504,364.694 132.542,364.874 132.589 M372.732 134.655 C 373.117 134.695,373.749 134.695,374.135 134.655 C 374.521 134.614,374.205 134.581,373.433 134.581 C 372.661 134.581,372.346 134.614,372.732 134.655 M380.496 134.650 C 380.727 134.695,381.106 134.695,381.338 134.650 C 381.569 134.606,381.380 134.569,380.917 134.569 C 380.454 134.569,380.264 134.606,380.496 134.650 M368.616 134.834 C 368.796 134.881,369.090 134.881,369.270 134.834 C 369.450 134.787,369.303 134.749,368.943 134.749 C 368.583 134.749,368.435 134.787,368.616 134.834 M203.511 141.015 C 203.848 141.057,204.353 141.056,204.634 141.013 C 204.915 140.970,204.640 140.936,204.022 140.937 C 203.405 140.938,203.175 140.973,203.511 141.015 M215.669 141.203 C 216.106 141.243,216.822 141.243,217.259 141.203 C 217.696 141.164,217.339 141.132,216.464 141.132 C 215.589 141.132,215.232 141.164,215.669 141.203 M176.848 141.388 C 177.130 141.430,177.594 141.430,177.877 141.388 C 178.159 141.345,177.928 141.310,177.362 141.310 C 176.796 141.310,176.565 141.345,176.848 141.388 M225.398 141.390 C 225.835 141.430,226.551 141.430,226.988 141.390 C 227.425 141.351,227.067 141.319,226.193 141.319 C 225.318 141.319,224.960 141.351,225.398 141.390 M234.846 141.577 C 235.232 141.617,235.863 141.617,236.249 141.577 C 236.635 141.537,236.319 141.503,235.547 141.503 C 234.775 141.503,234.460 141.537,234.846 141.577 M161.498 141.766 C 162.188 141.802,163.367 141.802,164.117 141.767 C 164.868 141.731,164.303 141.702,162.862 141.702 C 161.422 141.701,160.808 141.730,161.498 141.766 M243.639 141.764 C 244.025 141.804,244.656 141.804,245.042 141.764 C 245.428 141.724,245.112 141.691,244.341 141.691 C 243.569 141.691,243.253 141.724,243.639 141.764 M252.572 141.852 C 252.572 141.935,252.972 141.995,253.461 141.987 C 254.439 141.971,254.360 141.880,253.274 141.772 C 252.888 141.734,252.572 141.770,252.572 141.852 M152.152 141.949 C 152.435 141.992,152.898 141.992,153.181 141.949 C 153.464 141.906,153.232 141.871,152.666 141.871 C 152.100 141.871,151.869 141.906,152.152 141.949 M147.661 142.131 C 147.841 142.178,148.136 142.178,148.316 142.131 C 148.496 142.084,148.349 142.045,147.989 142.045 C 147.629 142.045,147.481 142.084,147.661 142.131 M259.729 142.136 C 260.012 142.179,260.475 142.179,260.758 142.136 C 261.041 142.093,260.809 142.058,260.243 142.058 C 259.677 142.058,259.446 142.093,259.729 142.136 M266.090 142.323 C 266.373 142.366,266.836 142.366,267.119 142.323 C 267.402 142.280,267.170 142.245,266.604 142.245 C 266.038 142.245,265.807 142.280,266.090 142.323 M141.113 142.505 C 141.293 142.552,141.588 142.552,141.768 142.505 C 141.948 142.458,141.801 142.419,141.441 142.419 C 141.080 142.419,140.933 142.458,141.113 142.505 M270.580 142.505 C 270.760 142.552,271.055 142.552,271.235 142.505 C 271.415 142.458,271.268 142.419,270.907 142.419 C 270.547 142.419,270.400 142.458,270.580 142.505 M137.558 142.692 C 137.739 142.739,138.033 142.739,138.213 142.692 C 138.393 142.645,138.246 142.607,137.886 142.607 C 137.526 142.607,137.378 142.645,137.558 142.692 M274.135 142.692 C 274.315 142.739,274.609 142.739,274.790 142.692 C 274.970 142.645,274.822 142.607,274.462 142.607 C 274.102 142.607,273.955 142.645,274.135 142.692 M134.004 142.879 C 134.184 142.926,134.478 142.926,134.659 142.879 C 134.839 142.832,134.691 142.794,134.331 142.794 C 133.971 142.794,133.824 142.832,134.004 142.879 M277.689 142.884 C 277.972 142.927,278.435 142.927,278.718 142.884 C 279.001 142.841,278.770 142.806,278.204 142.806 C 277.638 142.806,277.406 142.841,277.689 142.884 M213.891 143.639 C 215.512 143.670,218.164 143.670,219.785 143.639 C 221.406 143.607,220.080 143.582,216.838 143.582 C 213.597 143.582,212.271 143.607,213.891 143.639 M195.189 143.824 C 195.785 143.861,196.711 143.861,197.247 143.823 C 197.784 143.786,197.297 143.755,196.165 143.756 C 195.033 143.756,194.594 143.787,195.189 143.824 M236.436 143.821 C 236.770 143.863,237.318 143.863,237.652 143.821 C 237.986 143.780,237.713 143.746,237.044 143.746 C 236.375 143.746,236.101 143.780,236.436 143.821 M178.718 144.012 C 179.722 144.046,181.363 144.046,182.367 144.012 C 183.370 143.979,182.549 143.951,180.543 143.951 C 178.536 143.951,177.715 143.979,178.718 144.012 M244.110 144.008 C 244.446 144.050,244.951 144.049,245.233 144.006 C 245.514 143.964,245.239 143.930,244.621 143.931 C 244.004 143.932,243.774 143.967,244.110 144.008 M256.551 144.381 C 256.835 144.424,257.256 144.423,257.486 144.379 C 257.716 144.334,257.484 144.299,256.969 144.300 C 256.455 144.302,256.266 144.338,256.551 144.381 M160.577 144.573 C 161.173 144.610,162.099 144.609,162.635 144.572 C 163.172 144.534,162.685 144.504,161.553 144.504 C 160.421 144.504,159.982 144.535,160.577 144.573 M262.442 144.566 C 262.673 144.611,263.052 144.611,263.283 144.566 C 263.515 144.521,263.326 144.485,262.862 144.485 C 262.399 144.485,262.210 144.521,262.442 144.566 M153.090 144.755 C 153.374 144.798,153.795 144.797,154.025 144.753 C 154.255 144.708,154.022 144.673,153.508 144.675 C 152.993 144.676,152.805 144.712,153.090 144.755 M268.993 144.757 C 269.329 144.798,269.834 144.798,270.116 144.755 C 270.397 144.712,270.122 144.678,269.504 144.679 C 268.887 144.680,268.657 144.715,268.993 144.757 M147.664 144.942 C 147.948 144.985,148.369 144.984,148.599 144.940 C 148.830 144.896,148.597 144.860,148.082 144.862 C 147.568 144.863,147.380 144.899,147.664 144.942 M171.365 145.510 L 170.720 146.211 171.422 145.567 C 171.808 145.212,172.123 144.896,172.123 144.865 C 172.123 144.722,171.965 144.857,171.365 145.510 M143.545 145.124 C 143.725 145.171,144.020 145.171,144.200 145.124 C 144.380 145.077,144.233 145.039,143.873 145.039 C 143.513 145.039,143.365 145.077,143.545 145.124 M276.146 145.068 C 276.146 145.107,276.394 145.176,276.697 145.221 C 277.001 145.265,277.206 145.233,277.154 145.149 C 277.061 144.999,276.146 144.925,276.146 145.068 M140.178 145.311 C 140.358 145.358,140.652 145.358,140.833 145.311 C 141.013 145.264,140.865 145.226,140.505 145.226 C 140.145 145.226,139.998 145.264,140.178 145.311 M22.825 173.527 C 22.371 173.990,22.041 174.369,22.092 174.369 C 22.144 174.369,22.558 173.990,23.012 173.527 C 23.467 173.064,23.796 172.685,23.745 172.685 C 23.693 172.685,23.280 173.064,22.825 173.527 M141.709 174.415 L 141.160 175.023 141.768 174.474 C 142.102 174.172,142.376 173.898,142.376 173.866 C 142.376 173.721,142.222 173.849,141.709 174.415 M180.250 180.964 L 179.701 181.572 180.309 181.022 C 180.643 180.720,180.917 180.446,180.917 180.414 C 180.917 180.269,180.762 180.397,180.250 180.964 M133.855 182.273 L 133.115 183.068 133.910 182.329 C 134.650 181.641,134.791 181.478,134.650 181.478 C 134.619 181.478,134.261 181.836,133.855 182.273 M183.304 185.352 C 183.537 185.397,183.874 185.395,184.053 185.348 C 184.232 185.302,184.041 185.265,183.630 185.267 C 183.218 185.269,183.072 185.307,183.304 185.352 M66.651 216.600 C 67.037 216.641,67.668 216.641,68.054 216.600 C 68.440 216.560,68.124 216.527,67.353 216.527 C 66.581 216.527,66.265 216.560,66.651 216.600 M64.412 219.034 C 64.904 219.073,65.661 219.072,66.095 219.033 C 66.530 218.994,66.127 218.962,65.201 218.963 C 64.275 218.963,63.920 218.995,64.412 219.034 M125.626 263.891 C 125.626 270.889,125.650 273.724,125.678 270.192 C 125.707 266.660,125.707 260.935,125.678 257.470 C 125.650 254.005,125.626 256.894,125.626 263.891 M220.481 263.891 C 220.481 270.889,220.505 273.724,220.533 270.192 C 220.562 266.660,220.562 260.935,220.533 257.470 C 220.505 254.005,220.481 256.894,220.481 263.891 M250.040 260.337 C 250.040 265.379,250.064 267.415,250.093 264.861 C 250.123 262.307,250.123 258.181,250.093 255.693 C 250.064 253.205,250.040 255.295,250.040 260.337 M252.474 263.891 C 252.474 270.889,252.497 273.724,252.526 270.192 C 252.554 266.660,252.554 260.935,252.526 257.470 C 252.497 254.005,252.474 256.894,252.474 263.891 M301.492 263.891 C 301.492 270.889,301.515 273.724,301.543 270.192 C 301.572 266.660,301.572 260.935,301.543 257.470 C 301.515 254.005,301.492 256.894,301.492 263.891 M331.747 252.428 L 331.712 253.687 327.923 253.742 L 324.135 253.797 327.929 253.839 C 332.226 253.888,331.958 253.995,331.851 252.271 L 331.783 251.169 331.747 252.428 M335.355 263.891 C 335.355 270.889,335.378 273.724,335.407 270.192 C 335.435 266.660,335.435 260.935,335.407 257.470 C 335.378 254.005,335.355 256.894,335.355 263.891 M350.128 252.572 L 350.140 253.789 352.431 253.841 L 354.721 253.894 354.772 265.207 L 354.822 276.520 354.820 265.154 L 354.818 253.789 352.534 253.736 L 350.251 253.684 350.183 252.520 L 350.115 251.356 350.128 252.572 M150.291 253.835 C 151.403 253.868,153.171 253.868,154.220 253.834 C 155.269 253.801,154.359 253.774,152.198 253.774 C 150.037 253.774,149.179 253.802,150.291 253.835 M163.290 253.833 C 163.833 253.871,164.675 253.871,165.161 253.832 C 165.646 253.794,165.201 253.763,164.172 253.763 C 163.143 253.764,162.746 253.795,163.290 253.833 M292.189 253.835 C 293.244 253.868,294.970 253.868,296.024 253.835 C 297.079 253.801,296.216 253.774,294.107 253.774 C 291.997 253.774,291.134 253.801,292.189 253.835 M358.793 253.834 C 359.436 253.870,360.489 253.870,361.132 253.834 C 361.775 253.797,361.249 253.767,359.963 253.767 C 358.676 253.767,358.150 253.797,358.793 253.834 M67.999 263.891 C 67.999 268.110,68.024 269.863,68.054 267.786 C 68.084 265.709,68.084 262.257,68.054 260.115 C 68.024 257.973,67.999 259.673,67.999 263.891 M243.031 266.417 C 243.031 272.008,243.072 276.542,243.121 276.492 C 243.246 276.368,243.255 256.476,243.131 256.352 C 243.076 256.297,243.031 260.826,243.031 266.417 M38.405 257.250 C 38.405 257.713,38.441 257.902,38.486 257.671 C 38.530 257.439,38.530 257.060,38.486 256.829 C 38.441 256.597,38.405 256.787,38.405 257.250 M128.014 266.614 L 128.057 276.614 128.154 266.791 C 128.207 261.389,128.188 256.889,128.110 256.791 C 128.033 256.694,127.990 261.114,128.014 266.614 M168.467 263.891 C 168.467 267.905,168.492 269.520,168.522 267.481 C 168.552 265.442,168.552 262.158,168.522 260.184 C 168.491 258.210,168.467 259.878,168.467 263.891 M55.651 263.891 C 55.651 267.802,55.676 269.428,55.706 267.505 C 55.736 265.583,55.736 262.383,55.706 260.396 C 55.676 258.408,55.651 259.981,55.651 263.891 M77.315 259.631 C 77.701 259.672,78.333 259.672,78.718 259.631 C 79.104 259.591,78.789 259.558,78.017 259.558 C 77.245 259.558,76.929 259.591,77.315 259.631 M49.633 270.440 C 49.634 270.954,49.670 271.142,49.713 270.858 C 49.756 270.574,49.755 270.153,49.711 269.923 C 49.666 269.692,49.631 269.925,49.633 270.440 M112.199 274.041 L 115.792 274.096 115.858 275.355 L 115.923 276.614 115.960 275.257 L 115.996 273.901 112.301 273.943 L 108.606 273.986 112.199 274.041 M150.374 274.040 C 151.429 274.074,153.155 274.074,154.210 274.040 C 155.264 274.007,154.401 273.980,152.292 273.980 C 150.182 273.980,149.319 274.007,150.374 274.040 M163.196 274.039 C 163.687 274.077,164.445 274.077,164.879 274.038 C 165.314 273.998,164.911 273.967,163.985 273.967 C 163.059 273.968,162.704 274.000,163.196 274.039 M292.189 274.040 C 293.244 274.074,294.970 274.074,296.024 274.040 C 297.079 274.007,296.216 273.980,294.107 273.980 C 291.997 273.980,291.134 274.007,292.189 274.040 M327.961 274.039 L 331.695 274.096 331.764 275.309 L 331.833 276.522 331.819 275.258 L 331.805 273.994 328.017 273.988 L 324.228 273.982 327.961 274.039 " stroke="none" fill="#8c8c8c" fill-rule="evenodd"></path></g></svg>